# xmcd
#
# Track frame offsets:
#	150
#	4355
#	23390
#	38695
#	64120
#	82030
#	104660
#	123630
#	138657
#	159422
#	177705
#
# Disc length: 2573 seconds
# Revision: 5
# Processed by: cddbd v1.5.2PL0 Copyright (c) Steve Scherf et al.
# Submitted via: dBpowerAMP V12.0
#
DISCID=950a0b0b
DTITLE=Chris Thomas - Cry of the Prophets
DYEAR=1990
DGENRE=Blues
TTITLE0=Angel Lady
TTITLE1=Heart and Soul
TTITLE2=Wanna Die with a Smile on My Face
TTITLE3=Help Us, Somebody
TTITLE4=Dance to the Music Till My Savior Comes
TTITLE5=I'm Gonna Make It
TTITLE6=Alpha-Omega
TTITLE7=All Nite Long
TTITLE8=Last Real Man
TTITLE9=I Need You
TTITLE10=Cry of the Prophets
EXTD=
EXTT0=
EXTT1=
EXTT2=
EXTT3=
EXTT4=
EXTT5=
EXTT6=
EXTT7=
EXTT8=
EXTT9=
EXTT10=
PLAYORDER=
